<svg xmlns="http://www.w3.org/2000/svg" viewBox="0 0 1200 800">
  <!-- Base green gradient background -->
  <defs>
    <linearGradient id="baseGradient" x1="0%" y1="0%" x2="100%" y2="100%">
      <stop offset="0%" stop-color="#1a936f" />
      <stop offset="100%" stop-color="#88d498" />
    </linearGradient>
    
    <!-- Soft radial gradient overlay -->
    <radialGradient id="overlayGradient" cx="30%" cy="30%" r="70%" fx="30%" fy="30%">
      <stop offset="0%" stop-color="#114b5f" stop-opacity="0.2" />
      <stop offset="100%" stop-color="#114b5f" stop-opacity="0" />
    </radialGradient>
    
    <!-- Abstract shape gradients -->
    <linearGradient id="shapeGradient1" x1="0%" y1="0%" x2="100%" y2="100%">
      <stop offset="0%" stop-color="#c6dabf" />
      <stop offset="100%" stop-color="#c6dabf" stop-opacity="0" />
    </linearGradient>
    
    <linearGradient id="shapeGradient2" x1="100%" y1="0%" x2="0%" y2="100%">
      <stop offset="0%" stop-color="#114b5f" stop-opacity="0.3" />
      <stop offset="100%" stop-color="#114b5f" stop-opacity="0" />
    </linearGradient>
  </defs>
  
  <!-- Base background -->
  <rect width="100%" height="100%" fill="url(#baseGradient)" />
  
  <!-- Overlay gradient -->
  <rect width="100%" height="100%" fill="url(#overlayGradient)" />
  
  <!-- Abstract minimalist shapes -->
  <path d="M0,600 Q300,550 600,650 T1200,550 V800 H0 Z" fill="url(#shapeGradient1)" opacity="0.7" />
  
  <path d="M1200,0 Q900,150 600,50 T0,200 V0 H1200 Z" fill="url(#shapeGradient2)" opacity="0.5" />
  
  <!-- Subtle accent circles -->
  <circle cx="150" cy="150" r="300" fill="#c6dabf" opacity="0.1" />
  <circle cx="1000" cy="600" r="250" fill="#114b5f" opacity="0.1" />
  
  <!-- Additional subtle details -->
  <path d="M-100,300 Q200,100 400,300 T900,200 T1300,300" fill="none" stroke="#f3e9d2" stroke-width="2" opacity="0.2" />
  <path d="M-100,350 Q200,150 400,350 T900,250 T1300,350" fill="none" stroke="#f3e9d2" stroke-width="1" opacity="0.1" />
</svg>